<svg width="256" height="256" viewBox="0 0 256 256" fill="none" xmlns="http://www.w3.org/2000/svg" role="img" aria-labelledby="title desc">
  <title id="title">Multi-Session-Panel logo</title>
  <desc id="desc">A modern app logo showing connected browser panels in a luminous rounded square.</desc>
  <defs>
    <linearGradient id="bg" x1="36" y1="24" x2="220" y2="232" gradientUnits="userSpaceOnUse">
      <stop stop-color="#0EA5E9"/>
      <stop offset="0.48" stop-color="#2563EB"/>
      <stop offset="1" stop-color="#22C55E"/>
    </linearGradient>
    <linearGradient id="panel" x1="76" y1="68" x2="184" y2="196" gradientUnits="userSpaceOnUse">
      <stop stop-color="#F8FAFC"/>
      <stop offset="1" stop-color="#DCEBFF"/>
    </linearGradient>
    <filter id="shadow" x="28" y="30" width="204" height="204" color-interpolation-filters="sRGB" filterUnits="userSpaceOnUse">
      <feFlood flood-opacity="0" result="BackgroundImageFix"/>
      <feColorMatrix in="SourceAlpha" result="hardAlpha" type="matrix" values="0 0 0 0 0 0 0 0 0 0 0 0 0 0 0 0 0 0 127 0"/>
      <feOffset dy="10"/>
      <feGaussianBlur stdDeviation="14"/>
      <feComposite in2="hardAlpha" operator="out"/>
      <feColorMatrix type="matrix" values="0 0 0 0 0.02 0 0 0 0 0.06 0 0 0 0 0.12 0 0 0 0.32 0"/>
      <feBlend in2="BackgroundImageFix" mode="normal" result="effect1_dropShadow_1_2"/>
      <feBlend in="SourceGraphic" in2="effect1_dropShadow_1_2" mode="normal" result="shape"/>
    </filter>
  </defs>
  <rect width="256" height="256" rx="56" fill="#07111F"/>
  <rect x="20" y="20" width="216" height="216" rx="48" fill="url(#bg)"/>
  <path d="M68 68C68 57.5066 76.5066 49 87 49H169C179.493 49 188 57.5066 188 68V188C188 198.493 179.493 207 169 207H87C76.5066 207 68 198.493 68 188V68Z" fill="#07111F" fill-opacity="0.22"/>
  <g filter="url(#shadow)">
    <rect x="76" y="58" width="104" height="140" rx="22" fill="url(#panel)"/>
    <rect x="89" y="79" width="78" height="92" rx="13" fill="#0F172A"/>
    <rect x="98" y="90" width="60" height="14" rx="7" fill="#38BDF8"/>
    <rect x="98" y="114" width="25" height="47" rx="8" fill="#22C55E"/>
    <rect x="132" y="114" width="26" height="20" rx="8" fill="#E2E8F0"/>
    <rect x="132" y="143" width="26" height="18" rx="8" fill="#94A3B8"/>
    <circle cx="128" cy="183" r="6" fill="#0F172A" fill-opacity="0.72"/>
  </g>
  <rect x="48" y="94" width="50" height="74" rx="16" fill="#F8FAFC" fill-opacity="0.78"/>
  <rect x="158" y="88" width="54" height="82" rx="17" fill="#F8FAFC" fill-opacity="0.82"/>
  <path d="M99 197C107 209 116.667 215 128 215C139.333 215 149 209 157 197" stroke="#F8FAFC" stroke-width="9" stroke-linecap="round"/>
  <path d="M99 59C107 47 116.667 41 128 41C139.333 41 149 47 157 59" stroke="#F8FAFC" stroke-width="9" stroke-linecap="round" opacity="0.9"/>
</svg>
